 <svg width="40" height="40" viewBox="0 0 40 40" fill="none" xmlns="http://www.w3.org/2000/svg">
                <rect width="40" height="40" rx="20" fill="#FF3E79"/>
                <path fill-rule="evenodd" clip-rule="evenodd" d="M13 10C12.4477 10 12 10.4477 12 11V28.5C12.8284 28.5 13.5 29.1715 13.5 29.9999H14.5C14.5 29.1715 15.1716 28.5 16 28.5C16.8284 28.5 17.5 29.1715 17.5 29.9999H18.5C18.5 29.1715 19.1716 28.5 20 28.5C20.8284 28.5 21.5 29.1715 21.5 29.9999H22.5C22.5 29.1715 23.1716 28.5 24 28.5C24.8284 28.5 25.5 29.1715 25.5 29.9999H26.5C26.5 29.1715 27.1716 28.5 28 28.5V11C28 10.4477 27.5523 10 27 10H13ZM18.3296 22.3827C19.4703 22.5936 20.5536 22.3443 21.4163 21.7884L23.5252 23.8972C23.8991 24.2711 24.5126 24.2711 24.896 23.8876C25.2699 23.5138 25.2699 22.9003 24.896 22.5265L22.7871 20.4272C23.3239 19.5741 23.5828 18.5484 23.4006 17.4365C23.1034 15.6439 21.656 14.1677 19.8538 13.8802C16.9492 13.4201 14.4952 15.8261 14.8595 18.7114C15.0895 20.5326 16.5274 22.0472 18.3296 22.3827Z" fill="white"/>
                <path fill-rule="evenodd" clip-rule="evenodd" d="M19.0588 15.7058C17.7599 15.7058 16.7058 16.7599 16.7058 18.0588C16.7058 19.3576 17.7599 20.4117 19.0588 20.4117C20.3576 20.4117 21.4117 19.3576 21.4117 18.0588C21.4117 16.7599 20.3576 15.7058 19.0588 15.7058Z" fill="white"/>
            </svg>